<svg xmlns="http://www.w3.org/2000/svg" viewBox="0 0 300.55 43.99"><defs><style>.cls-1,.cls-2{fill:#da49bb;}.cls-2{font-size:31.43px;font-family:AbhayaLibre-ExtraBold, Abhaya Libre ExtraBold;font-weight:800;}.cls-3{letter-spacing:-0.02em;}.cls-4{letter-spacing:-0.02em;}</style></defs><title>congrate</title><g id="Layer_2" data-name="Layer 2"><g id="Layer_1-2" data-name="Layer 1"><path class="cls-1" d="M8.71,36.73C6.62,35.51,4.79,38.6,4.79,38.6S3,35.5.89,36.7C-1.42,38,1.07,42.9,4.77,44c3.71-1.06,6.24-5.91,3.94-7.26"/><path class="cls-1" d="M41,36.73C39,35.51,37.12,38.6,37.12,38.6s-1.81-3.1-3.9-1.9C30.91,38,33.4,42.9,37.1,44c3.71-1.06,6.24-5.91,3.94-7.26"/><path class="cls-1" d="M73.37,36.73c-2.09-1.22-3.92,1.87-3.92,1.87s-1.81-3.1-3.9-1.9c-2.31,1.33.18,6.2,3.88,7.29,3.71-1.06,6.24-5.91,3.94-7.26"/><path class="cls-1" d="M105.69,36.73c-2.08-1.22-3.91,1.87-3.91,1.87s-1.81-3.1-3.9-1.9c-2.31,1.33.18,6.2,3.88,7.29,3.71-1.06,6.23-5.91,3.93-7.26"/><path class="cls-1" d="M138,36.73c-2.08-1.22-3.91,1.87-3.91,1.87s-1.81-3.1-3.9-1.9c-2.31,1.33.18,6.2,3.88,7.29,3.71-1.06,6.23-5.91,3.93-7.26"/><path class="cls-1" d="M170.35,36.73c-2.08-1.22-3.91,1.87-3.91,1.87s-1.81-3.1-3.9-1.9c-2.31,1.33.18,6.2,3.88,7.29,3.71-1.06,6.23-5.91,3.93-7.26"/><path class="cls-1" d="M202.68,36.73c-2.08-1.22-3.91,1.87-3.91,1.87s-1.81-3.1-3.9-1.9c-2.31,1.33.18,6.2,3.88,7.29,3.71-1.06,6.23-5.91,3.93-7.26"/><path class="cls-1" d="M235,36.73c-2.08-1.22-3.91,1.87-3.91,1.87s-1.81-3.1-3.9-1.9c-2.31,1.33.17,6.2,3.88,7.29,3.71-1.06,6.23-5.91,3.93-7.26"/><path class="cls-1" d="M267.34,36.73c-2.08-1.22-3.91,1.87-3.91,1.87s-1.81-3.1-3.9-1.9c-2.31,1.33.17,6.2,3.88,7.29,3.7-1.06,6.23-5.91,3.93-7.26"/><path class="cls-1" d="M299.67,36.73c-2.08-1.22-3.92,1.87-3.92,1.87s-1.8-3.1-3.9-1.9c-2.31,1.33.18,6.2,3.88,7.29,3.71-1.06,6.24-5.91,3.94-7.26"/><path class="cls-1" d="M292.66,7c-5.77-3.38-10.85,5.19-10.85,5.19s-5-8.61-10.81-5.27c-6.4,3.68.5,17.18,10.76,20.21C292,24.17,299,10.72,292.66,7"/><path class="cls-1" d="M31.36,7c-5.77-3.38-10.85,5.19-10.85,5.19S15.5,3.57,9.7,6.91c-6.4,3.68.49,17.18,10.75,20.21C30.74,24.17,37.74,10.72,31.36,7"/><text class="cls-2" transform="translate(49.87 24.93)"><tspan class="cls-3">Con</tspan><tspan class="cls-4" x="49.4" y="0">gra</tspan><tspan class="cls-3" x="90.67" y="0">tul</tspan><tspan class="cls-4" x="126.31" y="0">ati</tspan><tspan class="cls-3" x="159.1" y="0">on</tspan><tspan x="190.84" y="0">s</tspan></text></g></g></svg>